solid Exported from Blender-3.0.0
facet normal -1.000000 0.000000 0.000000
outer loop
vertex -16.564602 19.645411 -0.000000
vertex -16.564602 16.581596 -0.000000
vertex -16.564602 16.581596 3.000006
endloop
endfacet
facet normal -1.000000 0.000000 0.000000
outer loop
vertex -16.564602 19.645411 -0.000000
vertex -16.564602 16.581596 3.000006
vertex -16.564602 19.645411 3.000006
endloop
endfacet
facet normal 0.000000 1.000000 0.000000
outer loop
vertex 17.235924 -29.451529 -0.000000
vertex 13.285807 -29.451529 -0.000000
vertex 13.285807 -29.451529 3.000006
endloop
endfacet
facet normal 0.000000 1.000000 0.000000
outer loop
vertex 17.235924 -29.451529 -0.000000
vertex 13.285807 -29.451529 3.000006
vertex 17.235924 -29.451529 3.000006
endloop
endfacet
facet normal 0.881921 0.471397 0.000000
outer loop
vertex -4.874269 -20.336063 -0.000000
vertex -5.321598 -19.499170 -0.000000
vertex -5.321598 -19.499170 1.499989
endloop
endfacet
facet normal 0.881921 0.471397 0.000000
outer loop
vertex -4.874269 -20.336063 -0.000000
vertex -5.321598 -19.499170 1.499989
vertex -4.874269 -20.336063 1.499989
endloop
endfacet
facet normal -0.998276 0.058699 0.000000
outer loop
vertex 5.952676 -17.999506 0.000000
vertex 5.876873 -19.288643 0.000000
vertex 5.876873 -19.288643 1.499989
endloop
endfacet
facet normal -0.998276 0.058700 0.000000
outer loop
vertex 5.952676 -17.999506 0.000000
vertex 5.876873 -19.288643 1.499989
vertex 5.952676 -17.999506 1.499989
endloop
endfacet
facet normal -0.999999 -0.001659 0.000000
outer loop
vertex -0.892164 -22.645805 -0.000000
vertex -0.885770 -26.499319 -0.000000
vertex -0.885770 -26.499319 1.499989
endloop
endfacet
facet normal -0.999999 -0.001659 0.000000
outer loop
vertex -0.892164 -22.645805 -0.000000
vertex -0.885770 -26.499319 1.499989
vertex -0.892164 -22.645805 1.499989
endloop
endfacet
facet normal 0.773010 0.634394 0.000000
outer loop
vertex -4.272265 -21.069605 -0.000000
vertex -4.874269 -20.336063 -0.000000
vertex -4.874269 -20.336063 1.499989
endloop
endfacet
facet normal 0.773010 0.634394 0.000000
outer loop
vertex -4.272265 -21.069605 -0.000000
vertex -4.874269 -20.336063 1.499989
vertex -4.272265 -21.069605 1.499989
endloop
endfacet
facet normal -0.950769 -0.309901 0.000000
outer loop
vertex 1.024303 -24.133593 0.000000
vertex 1.099572 -24.364515 0.000000
vertex 1.099572 -24.364515 1.499989
endloop
endfacet
facet normal -0.950769 -0.309901 0.000000
outer loop
vertex 1.024303 -24.133593 0.000000
vertex 1.099572 -24.364515 1.499989
vertex 1.024303 -24.133593 1.499989
endloop
endfacet
facet normal 0.999999 -0.001351 0.000000
outer loop
vertex -2.144556 -12.723477 -0.000000
vertex -2.144556 -12.723477 3.000006
vertex -2.157475 -22.286018 3.000006
endloop
endfacet
facet normal 0.999999 -0.001351 0.000000
outer loop
vertex -2.144556 -12.723477 -0.000000
vertex -2.157475 -22.286018 3.000006
vertex -2.157475 -22.286018 -0.000000
endloop
endfacet
facet normal 0.634393 0.773011 0.000000
outer loop
vertex -3.538720 -21.671610 -0.000000
vertex -4.272265 -21.069605 -0.000000
vertex -4.272265 -21.069605 1.499989
endloop
endfacet
facet normal 0.634394 0.773010 0.000000
outer loop
vertex -3.538720 -21.671610 -0.000000
vertex -4.272265 -21.069605 1.499989
vertex -3.538720 -21.671610 1.499989
endloop
endfacet
facet normal 1.000000 -0.000001 0.000001
outer loop
vertex -3.200040 -13.196610 -0.000000
vertex -3.200040 -12.576744 -0.000000
vertex -3.200041 -12.576700 1.499989
endloop
endfacet
facet normal 1.000000 0.000000 0.000000
outer loop
vertex -3.200040 -13.196610 -0.000000
vertex -3.200041 -12.576700 1.499989
vertex -3.200040 -13.196610 1.499989
endloop
endfacet
facet normal 0.406427 0.913683 0.000000
outer loop
vertex -2.157475 -22.286018 -0.000000
vertex -3.538720 -21.671610 -0.000000
vertex -3.538720 -21.671610 1.499989
endloop
endfacet
facet normal 0.406426 0.913683 0.000000
outer loop
vertex -2.157475 -22.286018 -0.000000
vertex -3.538720 -21.671610 1.499989
vertex -2.157475 -22.286018 1.499989
endloop
endfacet
facet normal -0.403546 0.914959 0.000000
outer loop
vertex 2.386991 -23.801638 0.000000
vertex 1.268513 -24.294947 0.000000
vertex 1.268513 -24.294947 1.499989
endloop
endfacet
facet normal -0.403546 0.914959 0.000000
outer loop
vertex 2.386991 -23.801638 0.000000
vertex 1.268513 -24.294947 1.499989
vertex 2.386991 -23.801638 1.499989
endloop
endfacet
facet normal 0.573423 -0.819259 0.000000
outer loop
vertex -3.733548 -13.720870 -0.000000
vertex -3.303444 -13.419828 -0.000000
vertex -3.303444 -13.419828 1.499989
endloop
endfacet
facet normal 0.573423 -0.819259 0.000000
outer loop
vertex -3.733548 -13.720870 -0.000000
vertex -3.303444 -13.419828 1.499989
vertex -3.733548 -13.720870 1.499989
endloop
endfacet
facet normal 0.999564 -0.029509 0.000000
outer loop
vertex -3.206361 -13.410723 -0.000000
vertex -3.200040 -13.196610 -0.000000
vertex -3.200040 -13.196610 1.499989
endloop
endfacet
facet normal 0.999564 -0.029509 0.000000
outer loop
vertex -3.206361 -13.410723 -0.000000
vertex -3.200040 -13.196610 1.499989
vertex -3.206361 -13.410723 1.499989
endloop
endfacet
facet normal 0.682425 -0.730956 0.000000
outer loop
vertex -4.272265 -14.223821 -0.000000
vertex -3.733548 -13.720870 -0.000000
vertex -3.733548 -13.720870 1.499989
endloop
endfacet
facet normal 0.682425 -0.730955 0.000000
outer loop
vertex -4.272265 -14.223821 -0.000000
vertex -3.733548 -13.720870 1.499989
vertex -4.272265 -14.223821 1.499989
endloop
endfacet
facet normal 0.093382 -0.995630 0.000000
outer loop
vertex -3.303444 -13.419828 -0.000000
vertex -3.206361 -13.410723 -0.000000
vertex -3.206361 -13.410723 1.499989
endloop
endfacet
facet normal 0.093383 -0.995630 0.000000
outer loop
vertex -3.303444 -13.419828 -0.000000
vertex -3.206361 -13.410723 1.499989
vertex -3.303444 -13.419828 1.499989
endloop
endfacet
facet normal -0.273505 -0.961871 0.000000
outer loop
vertex -2.157475 -22.286018 -0.000000
vertex -0.892164 -22.645805 -0.000000
vertex -0.892164 -22.645805 1.499989
endloop
endfacet
facet normal -0.273505 -0.961871 0.000000
outer loop
vertex -2.157475 -22.286018 -0.000000
vertex -0.892164 -22.645805 1.499989
vertex -2.157475 -22.286018 1.499989
endloop
endfacet
facet normal 0.773010 -0.634394 0.000000
outer loop
vertex -4.874269 -14.957362 -0.000000
vertex -4.272265 -14.223821 -0.000000
vertex -4.272265 -14.223821 1.499989
endloop
endfacet
facet normal 0.773010 -0.634394 0.000000
outer loop
vertex -4.874269 -14.957362 -0.000000
vertex -4.272265 -14.223821 1.499989
vertex -4.874269 -14.957362 1.499989
endloop
endfacet
facet normal -0.380772 0.924669 0.000000
outer loop
vertex 1.268513 -24.294947 0.000000
vertex 1.099572 -24.364515 0.000000
vertex 1.099572 -24.364515 1.499989
endloop
endfacet
facet normal -0.380772 0.924669 0.000000
outer loop
vertex 1.268513 -24.294947 0.000000
vertex 1.099572 -24.364515 1.499989
vertex 1.268513 -24.294947 1.499989
endloop
endfacet
facet normal 0.953033 0.302865 0.000000
outer loop
vertex 1.024303 -24.133593 0.000000
vertex 0.499010 -22.480637 -0.000000
vertex 0.499010 -22.480637 1.499989
endloop
endfacet
facet normal 0.953033 0.302865 0.000000
outer loop
vertex 1.024303 -24.133593 0.000000
vertex 0.499010 -22.480637 1.499989
vertex 1.024303 -24.133593 1.499989
endloop
endfacet
facet normal 0.881921 -0.471397 0.000000
outer loop
vertex -5.321598 -15.794255 -0.000000
vertex -4.874269 -14.957362 -0.000000
vertex -4.874269 -14.957362 1.499989
endloop
endfacet
facet normal 0.881921 -0.471397 0.000000
outer loop
vertex -5.321598 -15.794255 -0.000000
vertex -4.874269 -14.957362 1.499989
vertex -5.321598 -15.794255 1.499989
endloop
endfacet
facet normal -0.563269 0.826274 0.000000
outer loop
vertex 3.533022 -23.020391 0.000000
vertex 2.386991 -23.801638 0.000000
vertex 2.386991 -23.801638 1.499989
endloop
endfacet
facet normal -0.563269 0.826274 0.000000
outer loop
vertex 3.533022 -23.020391 0.000000
vertex 2.386991 -23.801638 1.499989
vertex 3.533022 -23.020391 1.499989
endloop
endfacet
facet normal 0.956941 -0.290283 0.000000
outer loop
vertex -5.597062 -16.702343 -0.000000
vertex -5.321598 -15.794255 -0.000000
vertex -5.321598 -15.794255 1.499989
endloop
endfacet
facet normal 0.956941 -0.290283 0.000000
outer loop
vertex -5.597062 -16.702343 -0.000000
vertex -5.321598 -15.794255 1.499989
vertex -5.597062 -16.702343 1.499989
endloop
endfacet
facet normal -0.692502 0.721416 0.000000
outer loop
vertex 4.351729 -22.234499 0.000000
vertex 3.533022 -23.020391 0.000000
vertex 3.533022 -23.020391 1.499989
endloop
endfacet
facet normal -0.692501 0.721417 0.000000
outer loop
vertex 4.351729 -22.234499 0.000000
vertex 3.533022 -23.020391 1.499989
vertex 4.351729 -22.234499 1.499989
endloop
endfacet
facet normal 0.995185 -0.098018 0.000000
outer loop
vertex -5.690074 -17.646717 -0.000000
vertex -5.597062 -16.702343 -0.000000
vertex -5.597062 -16.702343 1.499989
endloop
endfacet
facet normal 0.995185 -0.098016 0.000000
outer loop
vertex -5.690074 -17.646717 -0.000000
vertex -5.597062 -16.702343 1.499989
vertex -5.690074 -17.646717 1.499989
endloop
endfacet
facet normal -0.789273 0.614042 0.000000
outer loop
vertex 5.008060 -21.390869 0.000000
vertex 4.351729 -22.234499 0.000000
vertex 4.351729 -22.234499 1.499989
endloop
endfacet
facet normal -0.789273 0.614042 0.000000
outer loop
vertex 5.008060 -21.390869 0.000000
vertex 4.351729 -22.234499 1.499989
vertex 5.008060 -21.390869 1.499989
endloop
endfacet
facet normal 0.995185 0.098016 0.000000
outer loop
vertex -5.597062 -18.591093 -0.000000
vertex -5.690074 -17.646717 -0.000000
vertex -5.690074 -17.646717 1.499989
endloop
endfacet
facet normal 0.995185 0.098017 0.000000
outer loop
vertex -5.597062 -18.591093 -0.000000
vertex -5.690074 -17.646717 1.499989
vertex -5.597062 -18.591093 1.499989
endloop
endfacet
facet normal -0.893215 0.449629 0.000000
outer loop
vertex 5.509333 -20.395060 0.000000
vertex 5.008060 -21.390869 0.000000
vertex 5.008060 -21.390869 1.499989
endloop
endfacet
facet normal -0.893215 0.449629 0.000000
outer loop
vertex 5.509333 -20.395060 0.000000
vertex 5.008060 -21.390869 1.499989
vertex 5.509333 -20.395060 1.499989
endloop
endfacet
facet normal 0.956940 0.290286 0.000000
outer loop
vertex -5.321598 -19.499170 -0.000000
vertex -5.597062 -18.591093 -0.000000
vertex -5.597062 -18.591093 1.499989
endloop
endfacet
facet normal 0.956940 0.290286 0.000000
outer loop
vertex -5.321598 -19.499170 -0.000000
vertex -5.597062 -18.591093 1.499989
vertex -5.321598 -19.499170 1.499989
endloop
endfacet
facet normal -0.949009 0.315250 0.000000
outer loop
vertex 5.876873 -19.288643 0.000000
vertex 5.509333 -20.395060 0.000000
vertex 5.509333 -20.395060 1.499989
endloop
endfacet
facet normal -0.949008 0.315251 0.000000
outer loop
vertex 5.876873 -19.288643 0.000000
vertex 5.509333 -20.395060 1.499989
vertex 5.876873 -19.288643 1.499989
endloop
endfacet
facet normal -1.000000 0.000000 0.000000
outer loop
vertex 17.235924 -26.746496 -0.000000
vertex 17.235924 -29.451529 -0.000000
vertex 17.235924 -29.451529 3.000006
endloop
endfacet
facet normal -1.000000 0.000000 0.000000
outer loop
vertex 17.235924 -26.746496 -0.000000
vertex 17.235924 -29.451529 3.000006
vertex 17.235924 -26.746496 3.000006
endloop
endfacet
facet normal 0.000000 -1.000000 0.000000
outer loop
vertex -16.558372 24.251427 -0.000000
vertex -15.326820 24.251427 -0.000000
vertex -15.326820 24.251427 3.000006
endloop
endfacet
facet normal 0.000000 -1.000000 0.000000
outer loop
vertex -16.558372 24.251427 -0.000000
vertex -15.326820 24.251427 3.000006
vertex -16.558372 24.251427 3.000006
endloop
endfacet
facet normal 0.000000 -1.000000 0.000000
outer loop
vertex 7.306276 -26.746496 -0.000000
vertex 17.235924 -26.746496 -0.000000
vertex 17.235924 -26.746496 3.000006
endloop
endfacet
facet normal 0.000000 -1.000000 0.000000
outer loop
vertex 7.306276 -26.746496 -0.000000
vertex 17.235924 -26.746496 3.000006
vertex 7.306276 -26.746496 3.000006
endloop
endfacet
facet normal -1.000000 0.000000 0.000000
outer loop
vertex -15.328863 16.581596 -0.000000
vertex -15.328863 13.849292 -0.000000
vertex -15.328863 13.849292 3.000006
endloop
endfacet
facet normal -1.000000 0.000000 0.000000
outer loop
vertex -15.328863 16.581596 -0.000000
vertex -15.328863 13.849292 3.000006
vertex -15.328863 16.581596 3.000006
endloop
endfacet
facet normal -1.000000 0.000000 0.000000
outer loop
vertex 7.306276 -26.746496 -0.000000
vertex 7.306276 -26.746496 3.000006
vertex 7.306276 -11.030894 3.000006
endloop
endfacet
facet normal -1.000000 0.000000 0.000000
outer loop
vertex 7.306276 -26.746496 -0.000000
vertex 7.306276 -11.030894 3.000006
vertex 7.306276 -11.030894 -0.000000
endloop
endfacet
facet normal 0.000000 1.000000 0.000000
outer loop
vertex -15.328863 13.849292 -0.000000
vertex -16.554388 13.849292 -0.000000
vertex -16.554388 13.849292 3.000006
endloop
endfacet
facet normal 0.000000 1.000000 0.000000
outer loop
vertex -15.328863 13.849292 -0.000000
vertex -16.554388 13.849292 3.000006
vertex -15.328863 13.849292 3.000006
endloop
endfacet
facet normal 0.000000 -1.000000 0.000000
outer loop
vertex -16.564602 16.581596 -0.000000
vertex -15.328863 16.581596 -0.000000
vertex -15.328863 16.581596 3.000006
endloop
endfacet
facet normal 0.000000 -1.000000 0.000000
outer loop
vertex -16.564602 16.581596 -0.000000
vertex -15.328863 16.581596 3.000006
vertex -16.564602 16.581596 3.000006
endloop
endfacet
facet normal 1.000000 0.000000 0.000000
outer loop
vertex 12.046414 -11.434131 -0.000000
vertex 12.046414 -11.030894 -0.000000
vertex 12.046414 -11.030894 3.000006
endloop
endfacet
facet normal 1.000000 0.000000 0.000000
outer loop
vertex 12.046414 -11.434131 -0.000000
vertex 12.046414 -11.030894 3.000006
vertex 12.046414 -11.434131 3.000006
endloop
endfacet
facet normal 0.000000 1.000000 0.000000
outer loop
vertex 7.306276 -11.030894 -0.000000
vertex 7.306276 -11.030894 3.000006
vertex 12.046414 -11.030894 3.000006
endloop
endfacet
facet normal 0.000000 1.000000 0.000000
outer loop
vertex 7.306276 -11.030894 -0.000000
vertex 12.046414 -11.030894 3.000006
vertex 12.046414 -11.030894 -0.000000
endloop
endfacet
facet normal 0.000000 -1.000000 0.000000
outer loop
vertex -20.479858 -6.564839 -0.000000
vertex -19.290390 -6.564839 -0.000000
vertex -19.290390 -6.564839 3.000006
endloop
endfacet
facet normal 0.000000 -1.000000 0.000000
outer loop
vertex -20.479858 -6.564839 -0.000000
vertex -19.290390 -6.564839 3.000006
vertex -20.479858 -6.564839 3.000006
endloop
endfacet
facet normal 1.000000 0.000000 0.000000
outer loop
vertex 17.250420 -13.188128 -0.000000
vertex 17.250420 -10.970263 -0.000000
vertex 17.250420 -10.970263 3.000006
endloop
endfacet
facet normal 1.000000 0.000000 0.000000
outer loop
vertex 17.250420 -13.188128 -0.000000
vertex 17.250420 -10.970263 3.000006
vertex 17.250420 -13.188128 3.000006
endloop
endfacet
facet normal 0.000000 1.000000 0.000000
outer loop
vertex 13.684443 -11.434131 -0.000000
vertex 12.046414 -11.434131 -0.000000
vertex 12.046414 -11.434131 3.000006
endloop
endfacet
facet normal 0.000000 1.000000 0.000000
outer loop
vertex 13.684443 -11.434131 -0.000000
vertex 12.046414 -11.434131 3.000006
vertex 13.684443 -11.434131 3.000006
endloop
endfacet
facet normal -1.000000 0.000000 0.000000
outer loop
vertex -15.327515 10.385298 -0.000000
vertex -15.327515 7.248640 -0.000000
vertex -15.327515 7.248640 3.000006
endloop
endfacet
facet normal -1.000000 0.000000 0.000000
outer loop
vertex -15.327515 10.385298 -0.000000
vertex -15.327515 7.248640 3.000006
vertex -15.327515 10.385298 3.000006
endloop
endfacet
facet normal -1.000000 0.000000 0.000000
outer loop
vertex 13.684443 -10.970263 -0.000000
vertex 13.684443 -11.434131 -0.000000
vertex 13.684443 -11.434131 3.000006
endloop
endfacet
facet normal -1.000000 0.000000 0.000000
outer loop
vertex 13.684443 -10.970263 -0.000000
vertex 13.684443 -11.434131 3.000006
vertex 13.684443 -10.970263 3.000006
endloop
endfacet
facet normal 0.000000 1.000000 0.000000
outer loop
vertex -15.327515 7.248640 -0.000000
vertex -16.540785 7.248640 -0.000000
vertex -16.540785 7.248640 3.000006
endloop
endfacet
facet normal 0.000000 1.000000 0.000000
outer loop
vertex -15.327515 7.248640 -0.000000
vertex -16.540785 7.248640 3.000006
vertex -15.327515 7.248640 3.000006
endloop
endfacet
facet normal 0.000000 -1.000000 0.000000
outer loop
vertex -16.554388 10.385298 -0.000000
vertex -15.327515 10.385298 -0.000000
vertex -15.327515 10.385298 3.000006
endloop
endfacet
facet normal 0.000000 -1.000000 0.000000
outer loop
vertex -16.554388 10.385298 -0.000000
vertex -15.327515 10.385298 3.000006
vertex -16.554388 10.385298 3.000006
endloop
endfacet
facet normal 0.273505 0.961871 0.000000
outer loop
vertex -0.892164 -22.645805 -0.000000
vertex -2.157475 -22.286018 -0.000000
vertex -2.157475 -22.286018 3.000006
endloop
endfacet
facet normal 0.273505 0.961871 0.000000
outer loop
vertex -0.892164 -22.645805 -0.000000
vertex -2.157475 -22.286018 3.000006
vertex -0.892164 -22.645805 3.000006
endloop
endfacet
facet normal 0.000000 1.000000 0.000000
outer loop
vertex 17.250420 -10.970263 -0.000000
vertex 13.684443 -10.970263 -0.000000
vertex 13.684443 -10.970263 3.000006
endloop
endfacet
facet normal 0.000000 1.000000 0.000000
outer loop
vertex 17.250420 -10.970263 -0.000000
vertex 13.684443 -10.970263 3.000006
vertex 17.250420 -10.970263 3.000006
endloop
endfacet
facet normal -1.000000 0.000000 0.000000
outer loop
vertex -16.540785 7.248640 -0.000000
vertex -16.540785 1.130968 -0.000000
vertex -16.540785 1.130968 3.000006
endloop
endfacet
facet normal -1.000000 0.000000 0.000000
outer loop
vertex -16.540785 7.248640 -0.000000
vertex -16.540785 1.130968 3.000006
vertex -16.540785 7.248640 3.000006
endloop
endfacet
facet normal -0.304322 0.952569 0.000000
outer loop
vertex 0.973836 -22.328941 -0.000000
vertex 0.499010 -22.480637 -0.000000
vertex 0.499010 -22.480637 3.000006
endloop
endfacet
facet normal -0.304322 0.952569 0.000000
outer loop
vertex 0.973836 -22.328941 -0.000000
vertex 0.499010 -22.480637 3.000006
vertex 0.973836 -22.328941 3.000006
endloop
endfacet
facet normal 0.000000 1.000000 0.000000
outer loop
vertex 27.977339 -13.188128 -0.000000
vertex 17.250420 -13.188128 -0.000000
vertex 17.250420 -13.188128 3.000006
endloop
endfacet
facet normal 0.000000 1.000000 0.000000
outer loop
vertex 27.977339 -13.188128 -0.000000
vertex 17.250420 -13.188128 3.000006
vertex 27.977339 -13.188128 3.000006
endloop
endfacet
facet normal -1.000000 0.000000 0.000000
outer loop
vertex -15.328799 1.130968 -0.000000
vertex -15.328799 -1.575958 -0.000000
vertex -15.328799 -1.575958 3.000006
endloop
endfacet
facet normal -1.000000 0.000000 0.000000
outer loop
vertex -15.328799 1.130968 -0.000000
vertex -15.328799 -1.575958 3.000006
vertex -15.328799 1.130968 3.000006
endloop
endfacet
facet normal -1.000000 0.000000 0.000000
outer loop
vertex 27.977339 -9.014370 -0.000000
vertex 27.977339 -13.188128 -0.000000
vertex 27.977339 -13.188128 3.000006
endloop
endfacet
facet normal -1.000000 0.000000 0.000000
outer loop
vertex 27.977339 -9.014370 -0.000000
vertex 27.977339 -13.188128 3.000006
vertex 27.977339 -9.014370 3.000006
endloop
endfacet
facet normal 0.000000 1.000000 0.000000
outer loop
vertex -15.328799 -1.575958 -0.000000
vertex -16.534716 -1.575958 -0.000000
vertex -16.534716 -1.575958 3.000006
endloop
endfacet
facet normal 0.000000 1.000000 0.000000
outer loop
vertex -15.328799 -1.575958 -0.000000
vertex -16.534716 -1.575958 3.000006
vertex -15.328799 -1.575958 3.000006
endloop
endfacet
facet normal -0.035441 0.999372 0.000000
outer loop
vertex 0.091151 -22.610933 -0.000000
vertex -0.892164 -22.645805 -0.000000
vertex -0.892164 -22.645805 3.000006
endloop
endfacet
facet normal -0.035441 0.999372 0.000000
outer loop
vertex 0.091151 -22.610933 -0.000000
vertex -0.892164 -22.645805 3.000006
vertex 0.091151 -22.610933 3.000006
endloop
endfacet
facet normal 0.000000 -1.000000 0.000000
outer loop
vertex 23.730059 -9.014370 -0.000000
vertex 27.977339 -9.014370 -0.000000
vertex 27.977339 -9.014370 3.000006
endloop
endfacet
facet normal 0.000000 -1.000000 0.000000
outer loop
vertex 23.730059 -9.014370 -0.000000
vertex 27.977339 -9.014370 3.000006
vertex 23.730059 -9.014370 3.000006
endloop
endfacet
facet normal 0.000000 -1.000000 0.000000
outer loop
vertex -16.534716 -9.040500 -0.000000
vertex -10.533378 -9.040500 -0.000000
vertex -10.533378 -9.040500 3.000006
endloop
endfacet
facet normal 0.000000 -1.000000 0.000000
outer loop
vertex -16.534716 -9.040500 -0.000000
vertex -10.533378 -9.040500 3.000006
vertex -16.534716 -9.040500 3.000006
endloop
endfacet
facet normal 1.000000 0.000000 0.000000
outer loop
vertex 2.027374 -29.590723 -0.000000
vertex 2.027374 -26.515593 -0.000000
vertex 2.027374 -26.515593 3.000006
endloop
endfacet
facet normal 1.000000 0.000000 0.000000
outer loop
vertex 2.027374 -29.590723 -0.000000
vertex 2.027374 -26.515593 3.000006
vertex 2.027374 -29.590723 3.000006
endloop
endfacet
facet normal 0.000000 1.000000 0.000000
outer loop
vertex 28.555500 -2.252594 -0.000000
vertex 23.730059 -2.252594 -0.000000
vertex 23.730059 -2.252594 3.000006
endloop
endfacet
facet normal 0.000000 1.000000 0.000000
outer loop
vertex 28.555500 -2.252594 -0.000000
vertex 23.730059 -2.252594 3.000006
vertex 28.555470 -2.252594 3.000006
endloop
endfacet
facet normal -1.000000 0.000000 0.000000
outer loop
vertex 23.730059 -9.014370 -0.000000
vertex 23.730059 -9.014370 3.000006
vertex 23.730059 -2.252594 3.000006
endloop
endfacet
facet normal -1.000000 0.000000 0.000000
outer loop
vertex 23.730059 -9.014370 -0.000000
vertex 23.730059 -2.252594 3.000006
vertex 23.730059 -2.252594 -0.000000
endloop
endfacet
facet normal -1.000000 0.000000 0.000000
outer loop
vertex -16.534716 -1.575958 -0.000000
vertex -16.534716 -9.040500 -0.000000
vertex -16.534716 -9.040500 3.000006
endloop
endfacet
facet normal -1.000000 0.000000 0.000000
outer loop
vertex -16.534716 -1.575958 -0.000000
vertex -16.534716 -9.040500 3.000006
vertex -16.534716 -1.575958 3.000006
endloop
endfacet
facet normal 1.000000 0.000009 -0.000010
outer loop
vertex -31.708273 21.248421 -0.000000
vertex -31.708302 24.182600 -0.000000
vertex -31.708273 24.182600 3.000006
endloop
endfacet
facet normal 1.000000 0.000000 0.000000
outer loop
vertex -31.708273 21.248421 -0.000000
vertex -31.708273 24.182600 3.000006
vertex -31.708273 21.248421 3.000006
endloop
endfacet
facet normal 0.000000 1.000000 0.000000
outer loop
vertex -19.023197 21.248421 -0.000000
vertex -31.708273 21.248421 -0.000000
vertex -31.708273 21.248421 3.000006
endloop
endfacet
facet normal 0.000000 1.000000 0.000000
outer loop
vertex -19.023197 21.248421 -0.000000
vertex -31.708273 21.248421 3.000006
vertex -19.023197 21.248421 3.000006
endloop
endfacet
facet normal -1.000000 -0.000024 -0.000010
outer loop
vertex 28.555470 -0.991953 -0.000000
vertex 28.555500 -2.252594 -0.000000
vertex 28.555470 -2.252594 3.000006
endloop
endfacet
facet normal -1.000000 0.000000 0.000000
outer loop
vertex 28.555470 -0.991953 -0.000000
vertex 28.555470 -2.252594 3.000006
vertex 28.555470 -0.991953 3.000006
endloop
endfacet
facet normal 1.000000 0.000000 0.000000
outer loop
vertex -19.023197 21.248421 -0.000000
vertex -19.023197 21.248421 3.000006
vertex -19.023197 18.132307 3.000006
endloop
endfacet
facet normal 1.000000 0.000000 0.000000
outer loop
vertex -19.023197 21.248421 -0.000000
vertex -19.023197 18.132307 3.000006
vertex -19.023197 18.132307 -0.000000
endloop
endfacet
facet normal 0.000000 -1.000000 -0.000000
outer loop
vertex 9.069068 -0.991953 -0.000000
vertex 28.555470 -0.991953 -0.000000
vertex 28.555470 -0.991953 3.000006
endloop
endfacet
facet normal -0.000000 -1.000000 0.000000
outer loop
vertex 9.069068 -0.991953 -0.000000
vertex 28.555470 -0.991953 3.000006
vertex 9.069068 -0.991953 3.000006
endloop
endfacet
facet normal 1.000000 0.000000 0.000000
outer loop
vertex 9.069068 -9.038598 -0.000000
vertex 9.069068 -0.991953 -0.000000
vertex 9.069068 -0.991953 3.000006
endloop
endfacet
facet normal 1.000000 0.000000 0.000000
outer loop
vertex 9.069068 -9.038598 -0.000000
vertex 9.069068 -0.991953 3.000006
vertex 9.069068 -9.038598 3.000006
endloop
endfacet
facet normal 0.000000 -1.000000 0.000000
outer loop
vertex -19.362030 18.132307 -0.000000
vertex -19.023197 18.132307 -0.000000
vertex -19.023197 18.132307 3.000006
endloop
endfacet
facet normal 0.000000 -1.000000 0.000000
outer loop
vertex -19.362030 18.132307 -0.000000
vertex -19.023197 18.132307 3.000006
vertex -19.362030 18.132307 3.000006
endloop
endfacet
facet normal 0.005263 0.999986 0.000000
outer loop
vertex -1.277676 -26.498199 0.000000
vertex -1.277676 -26.498199 3.000006
vertex 2.027374 -26.515593 3.000006
endloop
endfacet
facet normal 0.005586 0.999984 0.000000
outer loop
vertex 2.027374 -26.515593 3.000006
vertex 2.027374 -26.515593 -0.000000
vertex -0.885770 -26.499319 -0.000000
endloop
endfacet
facet normal 0.002857 0.999992 0.002661
outer loop
vertex 2.027374 -26.515593 3.000006
vertex -0.885770 -26.499319 -0.000000
vertex -1.277676 -26.498199 0.000000
endloop
endfacet
facet normal 0.000000 -1.000000 0.000000
outer loop
vertex -10.524405 -9.632038 -0.000000
vertex -7.132484 -9.632038 -0.000000
vertex -7.132484 -9.632038 3.000006
endloop
endfacet
facet normal 0.000000 -1.000000 0.000000
outer loop
vertex -10.524405 -9.632038 -0.000000
vertex -7.132484 -9.632038 3.000006
vertex -10.524405 -9.632038 3.000006
endloop
endfacet
facet normal 1.000000 0.000000 0.000000
outer loop
vertex -19.362030 11.359873 -0.000000
vertex -19.362030 18.132307 -0.000000
vertex -19.362030 18.132307 3.000006
endloop
endfacet
facet normal 1.000000 0.000000 0.000000
outer loop
vertex -19.362030 11.359873 -0.000000
vertex -19.362030 18.132307 3.000006
vertex -19.362030 11.359873 3.000006
endloop
endfacet
facet normal -1.000000 0.000000 0.000000
outer loop
vertex -10.410052 -12.576744 -0.000000
vertex -10.410052 -26.790129 0.000000
vertex -10.410052 -26.790129 3.000006
endloop
endfacet
facet normal -1.000000 -0.000003 -0.000016
outer loop
vertex -10.410052 -12.576744 -0.000000
vertex -10.410052 -26.790129 3.000006
vertex -10.410100 -12.576700 3.000006
endloop
endfacet
facet normal 1.000000 0.000000 0.000000
outer loop
vertex -19.290390 -6.564839 -0.000000
vertex -19.290390 7.145152 -0.000000
vertex -19.290390 7.145152 3.000006
endloop
endfacet
facet normal 1.000000 0.000000 0.000000
outer loop
vertex -19.290390 -6.564839 -0.000000
vertex -19.290390 7.145152 3.000006
vertex -19.290390 -6.564839 3.000006
endloop
endfacet
facet normal 1.000000 0.000000 0.000000
outer loop
vertex -3.188546 -9.615274 0.000000
vertex -3.188546 -9.038598 -0.000000
vertex -3.188546 -9.038598 3.000006
endloop
endfacet
facet normal 1.000000 0.000000 -0.000000
outer loop
vertex -3.188546 -9.615274 0.000000
vertex -3.188546 -9.038598 3.000006
vertex -3.188546 -9.615274 3.000006
endloop
endfacet
facet normal 0.000000 -1.000000 0.000000
outer loop
vertex -20.508072 11.359873 -0.000000
vertex -19.362030 11.359873 -0.000000
vertex -19.362030 11.359873 3.000006
endloop
endfacet
facet normal 0.000000 -1.000000 0.000000
outer loop
vertex -20.508072 11.359873 -0.000000
vertex -19.362030 11.359873 3.000006
vertex -20.508072 11.359873 3.000006
endloop
endfacet
facet normal -1.000000 0.000000 0.000000
outer loop
vertex -5.615951 -9.041951 -0.000000
vertex -5.615951 -9.615274 -0.000000
vertex -5.615951 -9.615274 3.000006
endloop
endfacet
facet normal -1.000000 0.000000 0.000000
outer loop
vertex -5.615951 -9.041951 -0.000000
vertex -5.615951 -9.615274 3.000006
vertex -5.615951 -9.041951 3.000006
endloop
endfacet
facet normal 0.000000 -1.000000 0.000000
outer loop
vertex -3.188546 -9.615274 0.000000
vertex -3.188546 -9.615274 3.000006
vertex -5.615951 -9.615274 3.000006
endloop
endfacet
facet normal 0.000000 -1.000000 0.000000
outer loop
vertex -3.188546 -9.615274 0.000000
vertex -5.615951 -9.615274 3.000006
vertex -5.615951 -9.615274 -0.000000
endloop
endfacet
facet normal 1.000000 0.000000 0.000000
outer loop
vertex -20.508072 7.145152 -0.000000
vertex -20.508072 11.359873 -0.000000
vertex -20.508072 11.359873 3.000006
endloop
endfacet
facet normal 1.000000 0.000000 0.000000
outer loop
vertex -20.508072 7.145152 -0.000000
vertex -20.508072 11.359873 3.000006
vertex -20.508072 7.145152 3.000006
endloop
endfacet
facet normal 0.000000 1.000000 0.000000
outer loop
vertex -19.290390 7.145152 -0.000000
vertex -20.508072 7.145152 -0.000000
vertex -20.508072 7.145152 3.000006
endloop
endfacet
facet normal 0.000000 1.000000 0.000000
outer loop
vertex -19.290390 7.145152 -0.000000
vertex -20.508072 7.145152 3.000006
vertex -19.290390 7.145152 3.000006
endloop
endfacet
facet normal 0.000000 -1.000000 0.000000
outer loop
vertex -3.188546 -9.038598 -0.000000
vertex 9.069068 -9.038598 -0.000000
vertex 9.069068 -9.038598 3.000006
endloop
endfacet
facet normal 0.000000 -1.000000 0.000000
outer loop
vertex -3.188546 -9.038598 -0.000000
vertex 9.069068 -9.038598 3.000006
vertex -3.188546 -9.038598 3.000006
endloop
endfacet
facet normal -1.000000 0.000000 0.000000
outer loop
vertex -16.554388 13.849292 -0.000000
vertex -16.554388 10.385298 -0.000000
vertex -16.554388 10.385298 3.000006
endloop
endfacet
facet normal -1.000000 0.000000 0.000000
outer loop
vertex -16.554388 13.849292 -0.000000
vertex -16.554388 10.385298 3.000006
vertex -16.554388 13.849292 3.000006
endloop
endfacet
facet normal 0.000000 -1.000000 0.000000
outer loop
vertex -7.132484 -9.041951 -0.000000
vertex -5.615951 -9.041951 -0.000000
vertex -5.615951 -9.041951 3.000006
endloop
endfacet
facet normal 0.000000 -1.000000 0.000000
outer loop
vertex -7.132484 -9.041951 -0.000000
vertex -5.615951 -9.041951 3.000006
vertex -7.132484 -9.041951 3.000006
endloop
endfacet
facet normal 0.000000 1.000000 0.000000
outer loop
vertex -19.321051 -10.803645 -0.000000
vertex -20.479858 -10.803645 -0.000000
vertex -20.479858 -10.803645 3.000006
endloop
endfacet
facet normal 0.000000 1.000000 0.000000
outer loop
vertex -19.321051 -10.803645 -0.000000
vertex -20.479858 -10.803645 3.000006
vertex -19.321051 -10.803645 3.000006
endloop
endfacet
facet normal 1.000000 0.000000 0.000000
outer loop
vertex -7.132484 -9.632038 -0.000000
vertex -7.132484 -9.041951 -0.000000
vertex -7.132484 -9.041951 3.000006
endloop
endfacet
facet normal 1.000000 0.000000 0.000000
outer loop
vertex -7.132484 -9.632038 -0.000000
vertex -7.132484 -9.041951 3.000006
vertex -7.132484 -9.632038 3.000006
endloop
endfacet
facet normal 1.000000 0.000000 0.000000
outer loop
vertex -20.479858 -10.803645 -0.000000
vertex -20.479858 -6.564839 -0.000000
vertex -20.479858 -6.564839 3.000006
endloop
endfacet
facet normal 1.000000 0.000000 0.000000
outer loop
vertex -20.479858 -10.803645 -0.000000
vertex -20.479858 -6.564839 3.000006
vertex -20.479858 -10.803645 3.000006
endloop
endfacet
facet normal 1.000000 0.000000 0.000000
outer loop
vertex -19.321051 -10.803645 -0.000000
vertex -19.321051 -10.803645 3.000006
vertex -19.321051 -13.715919 3.000006
endloop
endfacet
facet normal 1.000000 0.000000 0.000000
outer loop
vertex -19.321051 -10.803645 -0.000000
vertex -19.321051 -13.715919 3.000006
vertex -19.321051 -13.715919 -0.000000
endloop
endfacet
facet normal 0.000000 1.000000 0.000000
outer loop
vertex 22.340595 -9.114367 0.000000
vertex 10.900001 -9.114366 0.000000
vertex 10.900001 -9.114366 3.000006
endloop
endfacet
facet normal 0.000000 1.000000 0.000000
outer loop
vertex 22.340595 -9.114367 0.000000
vertex 10.900001 -9.114366 3.000006
vertex 22.340595 -9.114367 3.000006
endloop
endfacet
facet normal 1.000000 0.000000 0.000000
outer loop
vertex 10.655749 -2.939928 0.000000
vertex 10.655749 -2.288932 0.000000
vertex 10.655749 -2.288932 3.000006
endloop
endfacet
facet normal 1.000000 0.000000 0.000000
outer loop
vertex 10.655749 -2.939928 0.000000
vertex 10.655749 -2.288932 3.000006
vertex 10.655749 -2.939928 3.000006
endloop
endfacet
facet normal 1.000000 0.000000 0.000000
outer loop
vertex -19.287521 -44.365829 -0.000000
vertex -19.287521 -28.716320 -0.000000
vertex -19.287521 -28.716320 3.000006
endloop
endfacet
facet normal 1.000000 0.000000 0.000000
outer loop
vertex -19.287521 -44.365829 -0.000000
vertex -19.287521 -28.716320 3.000006
vertex -19.287521 -44.365829 3.000006
endloop
endfacet
facet normal 0.000001 1.000000 0.000000
outer loop
vertex 10.900001 -2.939928 0.000000
vertex 10.655749 -2.939928 0.000000
vertex 10.655749 -2.939928 3.000006
endloop
endfacet
facet normal 0.000001 1.000000 0.000000
outer loop
vertex 10.900001 -2.939928 0.000000
vertex 10.655749 -2.939928 3.000006
vertex 10.900001 -2.939928 3.000006
endloop
endfacet
facet normal 0.000000 -1.000000 0.000000
outer loop
vertex -20.495106 -13.715919 -0.000000
vertex -19.321051 -13.715919 -0.000000
vertex -19.321051 -13.715919 3.000006
endloop
endfacet
facet normal 0.000000 -1.000000 0.000000
outer loop
vertex -20.495106 -13.715919 -0.000000
vertex -19.321051 -13.715919 3.000006
vertex -20.495106 -13.715919 3.000006
endloop
endfacet
facet normal 1.000000 0.000000 0.000000
outer loop
vertex 10.900001 -9.114366 0.000000
vertex 10.900001 -2.939928 0.000000
vertex 10.900001 -2.939928 3.000006
endloop
endfacet
facet normal 1.000000 0.000000 0.000000
outer loop
vertex 10.900001 -9.114366 0.000000
vertex 10.900001 -2.939928 3.000006
vertex 10.900001 -9.114366 3.000006
endloop
endfacet
facet normal 1.000000 0.000000 0.000000
outer loop
vertex -20.495106 -16.307995 -0.000000
vertex -20.495106 -13.715919 -0.000000
vertex -20.495106 -13.715919 3.000006
endloop
endfacet
facet normal 1.000000 0.000000 0.000000
outer loop
vertex -20.495106 -16.307995 -0.000000
vertex -20.495106 -13.715919 3.000006
vertex -20.495106 -16.307995 3.000006
endloop
endfacet
facet normal 0.000000 1.000000 0.000000
outer loop
vertex -19.305801 -16.307995 -0.000000
vertex -20.495106 -16.307995 -0.000000
vertex -20.495106 -16.307995 3.000006
endloop
endfacet
facet normal 0.000000 1.000000 0.000000
outer loop
vertex -19.305801 -16.307995 -0.000000
vertex -20.495106 -16.307995 3.000006
vertex -19.305801 -16.307995 3.000006
endloop
endfacet
facet normal 0.000000 -1.000000 0.000000
outer loop
vertex -20.489799 -24.476583 -0.000000
vertex -19.305801 -24.476583 -0.000000
vertex -19.305801 -24.476583 3.000006
endloop
endfacet
facet normal 0.000000 -1.000000 0.000000
outer loop
vertex -20.489799 -24.476583 -0.000000
vertex -19.305801 -24.476583 3.000006
vertex -20.489799 -24.476583 3.000006
endloop
endfacet
facet normal 1.000000 0.000000 0.000000
outer loop
vertex -19.305801 -16.307995 -0.000000
vertex -19.305801 -16.307995 3.000006
vertex -19.305801 -24.476583 3.000006
endloop
endfacet
facet normal 1.000000 0.000000 0.000000
outer loop
vertex -19.305801 -16.307995 -0.000000
vertex -19.305801 -24.476583 3.000006
vertex -19.305801 -24.476583 -0.000000
endloop
endfacet
facet normal -1.000000 0.000000 0.000000
outer loop
vertex 22.340595 -2.247215 0.000000
vertex 22.340595 -9.114367 0.000000
vertex 22.340595 -9.114367 3.000006
endloop
endfacet
facet normal -1.000000 0.000000 0.000000
outer loop
vertex 22.340595 -2.247215 0.000000
vertex 22.340595 -9.114367 3.000006
vertex 22.340595 -2.247215 3.000006
endloop
endfacet
facet normal 0.003570 -0.999994 0.000000
outer loop
vertex 10.655749 -2.288932 0.000000
vertex 22.340595 -2.247215 0.000000
vertex 22.340595 -2.247215 3.000006
endloop
endfacet
facet normal 0.003570 -0.999994 0.000000
outer loop
vertex 10.655749 -2.288932 0.000000
vertex 22.340595 -2.247215 3.000006
vertex 10.655749 -2.288932 3.000006
endloop
endfacet
facet normal -0.999885 -0.015166 0.000000
outer loop
vertex -10.533378 -9.040500 -0.000000
vertex -10.524405 -9.632038 -0.000000
vertex -10.524405 -9.632038 3.000006
endloop
endfacet
facet normal -0.999885 -0.015168 0.000000
outer loop
vertex -10.533378 -9.040500 -0.000000
vertex -10.524405 -9.632038 3.000006
vertex -10.533378 -9.040500 3.000006
endloop
endfacet
facet normal 1.000000 0.000000 0.000000
outer loop
vertex -20.489799 -28.716320 -0.000000
vertex -20.489799 -24.476583 -0.000000
vertex -20.489799 -24.476583 3.000006
endloop
endfacet
facet normal 1.000000 0.000000 0.000000
outer loop
vertex -20.489799 -28.716320 -0.000000
vertex -20.489799 -24.476583 3.000006
vertex -20.489799 -28.716320 3.000006
endloop
endfacet
facet normal 0.000000 -1.000000 0.000000
outer loop
vertex -26.345245 31.976801 0.000000
vertex -18.722143 31.976803 0.000000
vertex -18.722143 31.976803 3.000006
endloop
endfacet
facet normal 0.000000 -1.000000 0.000000
outer loop
vertex -26.345245 31.976801 0.000000
vertex -18.722143 31.976803 3.000006
vertex -26.345245 31.976801 3.000006
endloop
endfacet
facet normal 0.000000 1.000000 0.000000
outer loop
vertex -19.287521 -28.716320 -0.000000
vertex -20.489799 -28.716320 -0.000000
vertex -20.489799 -28.716320 3.000006
endloop
endfacet
facet normal 0.000000 1.000000 0.000000
outer loop
vertex -19.287521 -28.716320 -0.000000
vertex -20.489799 -28.716320 3.000006
vertex -19.287521 -28.716320 3.000006
endloop
endfacet
facet normal 1.000000 0.000000 0.000000
outer loop
vertex -26.345245 25.971947 0.000000
vertex -26.345245 31.976801 0.000000
vertex -26.345245 31.976801 3.000006
endloop
endfacet
facet normal 1.000000 0.000000 0.000000
outer loop
vertex -26.345245 25.971947 0.000000
vertex -26.345245 31.976801 3.000006
vertex -26.345245 25.971947 3.000006
endloop
endfacet
facet normal -1.000000 0.000000 0.000000
outer loop
vertex -16.516165 -40.106907 -0.000000
vertex -16.516165 -44.365799 -0.000000
vertex -16.516165 -44.365829 3.000006
endloop
endfacet
facet normal -1.000000 0.000000 0.000000
outer loop
vertex -16.516165 -40.106907 -0.000000
vertex -16.516165 -44.365829 3.000006
vertex -16.516165 -40.106907 3.000006
endloop
endfacet
facet normal -0.000011 1.000000 0.000000
outer loop
vertex -16.516165 -44.365799 -0.000000
vertex -19.287521 -44.365829 -0.000000
vertex -19.287521 -44.365829 3.000006
endloop
endfacet
facet normal 0.000000 1.000000 0.000011
outer loop
vertex -16.516165 -44.365799 -0.000000
vertex -19.287521 -44.365829 3.000006
vertex -16.516165 -44.365829 3.000006
endloop
endfacet
facet normal 0.000000 -1.000000 0.000000
outer loop
vertex -16.499863 -34.279797 -0.000000
vertex -15.399471 -34.279797 -0.000000
vertex -15.399471 -34.279797 3.000006
endloop
endfacet
facet normal 0.000000 -1.000000 0.000000
outer loop
vertex -16.499863 -34.279797 -0.000000
vertex -15.399471 -34.279797 3.000006
vertex -16.499863 -34.279797 3.000006
endloop
endfacet
facet normal 0.000000 1.000000 0.000000
outer loop
vertex -25.855257 25.971947 0.000000
vertex -26.345245 25.971947 0.000000
vertex -26.345245 25.971947 3.000006
endloop
endfacet
facet normal 0.000000 1.000000 0.000000
outer loop
vertex -25.855257 25.971947 0.000000
vertex -26.345245 25.971947 3.000006
vertex -25.855257 25.971947 3.000006
endloop
endfacet
facet normal 0.000000 1.000000 0.000000
outer loop
vertex -15.399471 -40.106907 -0.000000
vertex -16.516165 -40.106907 -0.000000
vertex -16.516165 -40.106907 3.000006
endloop
endfacet
facet normal 0.000000 1.000000 0.000000
outer loop
vertex -15.399471 -40.106907 -0.000000
vertex -16.516165 -40.106907 3.000006
vertex -15.399471 -40.106907 3.000006
endloop
endfacet
facet normal 0.000000 1.000000 0.000000
outer loop
vertex -18.722143 25.599958 0.000000
vertex -20.584944 25.599958 0.000000
vertex -20.584944 25.599958 3.000006
endloop
endfacet
facet normal 0.000000 1.000000 0.000000
outer loop
vertex -18.722143 25.599958 0.000000
vertex -20.584944 25.599958 3.000006
vertex -18.722143 25.599958 3.000006
endloop
endfacet
facet normal -1.000000 0.000000 0.000000
outer loop
vertex -15.399471 -34.279797 -0.000000
vertex -15.399471 -40.106907 -0.000000
vertex -15.399471 -40.106907 3.000006
endloop
endfacet
facet normal -1.000000 0.000000 0.000000
outer loop
vertex -15.399471 -34.279797 -0.000000
vertex -15.399471 -40.106907 3.000006
vertex -15.399471 -34.279797 3.000006
endloop
endfacet
facet normal 0.000000 1.000000 0.000000
outer loop
vertex -20.585497 24.176550 0.000000
vertex -25.861385 24.176550 0.000000
vertex -25.861385 24.176550 3.000006
endloop
endfacet
facet normal 0.000000 1.000000 0.000000
outer loop
vertex -20.585497 24.176550 0.000000
vertex -25.861385 24.176550 3.000006
vertex -20.585497 24.176550 3.000006
endloop
endfacet
facet normal -1.000000 0.000000 0.000000
outer loop
vertex -16.499863 -34.279797 -0.000000
vertex -16.499863 -34.279797 3.000006
vertex -16.499863 -27.676559 3.000006
endloop
endfacet
facet normal -1.000000 0.000000 0.000000
outer loop
vertex -16.499863 -34.279797 -0.000000
vertex -16.499863 -27.676559 3.000006
vertex -16.499863 -27.676559 -0.000000
endloop
endfacet
facet normal -1.000000 0.000388 0.000000
outer loop
vertex -20.584944 25.599958 0.000000
vertex -20.585497 24.176550 0.000000
vertex -20.585497 24.176550 3.000006
endloop
endfacet
facet normal -1.000000 0.000389 0.000000
outer loop
vertex -20.584944 25.599958 0.000000
vertex -20.585497 24.176550 3.000006
vertex -20.584944 25.599958 3.000006
endloop
endfacet
facet normal 0.000000 -1.000000 0.000000
outer loop
vertex -16.484013 -26.433525 -0.000000
vertex -15.444755 -26.433525 -0.000000
vertex -15.444755 -26.433525 3.000006
endloop
endfacet
facet normal 0.000000 -1.000000 0.000000
outer loop
vertex -16.484013 -26.433525 -0.000000
vertex -15.444755 -26.433525 3.000006
vertex -16.484013 -26.433525 3.000006
endloop
endfacet
facet normal 0.000000 1.000000 0.000000
outer loop
vertex -15.444755 -27.676559 -0.000000
vertex -16.499863 -27.676559 -0.000000
vertex -16.499863 -27.676559 3.000006
endloop
endfacet
facet normal 0.000000 1.000000 0.000000
outer loop
vertex -15.444755 -27.676559 -0.000000
vertex -16.499863 -27.676559 3.000006
vertex -15.444755 -27.676559 3.000006
endloop
endfacet
facet normal -1.000000 0.000000 0.000000
outer loop
vertex -18.722143 31.976803 0.000000
vertex -18.722143 25.599958 0.000000
vertex -18.722143 25.599958 3.000006
endloop
endfacet
facet normal -1.000000 0.000000 0.000000
outer loop
vertex -18.722143 31.976803 0.000000
vertex -18.722143 25.599958 3.000006
vertex -18.722143 31.976803 3.000006
endloop
endfacet
facet normal -1.000000 0.000000 0.000000
outer loop
vertex -15.444755 -26.433525 -0.000000
vertex -15.444755 -27.676559 -0.000000
vertex -15.444755 -27.676559 3.000006
endloop
endfacet
facet normal -1.000000 0.000000 0.000000
outer loop
vertex -15.444755 -26.433525 -0.000000
vertex -15.444755 -27.676559 3.000006
vertex -15.444755 -26.433525 3.000006
endloop
endfacet
facet normal 0.092099 -0.995750 0.000000
outer loop
vertex -2.015644 -12.711554 -0.000000
vertex -0.894072 -12.607817 -0.000000
vertex -0.894072 -12.607817 3.000006
endloop
endfacet
facet normal 0.092099 -0.995750 0.000000
outer loop
vertex -2.015644 -12.711554 -0.000000
vertex -0.894072 -12.607817 3.000006
vertex -2.015644 -12.711554 3.000006
endloop
endfacet
facet normal -0.304314 0.952572 0.000000
outer loop
vertex 0.499010 -22.480637 -0.000000
vertex 0.091151 -22.610933 -0.000000
vertex 0.091151 -22.610933 3.000006
endloop
endfacet
facet normal -0.304314 0.952572 0.000000
outer loop
vertex 0.499010 -22.480637 -0.000000
vertex 0.091151 -22.610933 3.000006
vertex 0.499010 -22.480637 3.000006
endloop
endfacet
facet normal 0.000000 -1.000000 0.000000
outer loop
vertex -31.708302 24.182600 -0.000000
vertex -27.605211 24.182600 -0.000000
vertex -27.605211 24.182600 3.000006
endloop
endfacet
facet normal 0.000000 -1.000000 0.000001
outer loop
vertex -31.708302 24.182600 -0.000000
vertex -27.605211 24.182600 3.000006
vertex -31.708273 24.182600 3.000006
endloop
endfacet
facet normal -0.449639 0.893210 0.000000
outer loop
vertex 1.911603 -21.856873 -0.000000
vertex 0.973836 -22.328941 -0.000000
vertex 0.973836 -22.328941 3.000006
endloop
endfacet
facet normal -0.449639 0.893210 0.000000
outer loop
vertex 1.911603 -21.856873 -0.000000
vertex 0.973836 -22.328941 3.000006
vertex 1.911603 -21.856873 3.000006
endloop
endfacet
facet normal -0.634395 0.773009 0.000000
outer loop
vertex 2.676874 -21.228828 -0.000000
vertex 1.911603 -21.856873 -0.000000
vertex 1.911603 -21.856873 3.000006
endloop
endfacet
facet normal -0.634395 0.773009 0.000000
outer loop
vertex 2.676874 -21.228828 -0.000000
vertex 1.911603 -21.856873 3.000006
vertex 2.676874 -21.228828 3.000006
endloop
endfacet
facet normal -0.773008 0.634396 0.000000
outer loop
vertex 3.304916 -20.463562 -0.000000
vertex 2.676874 -21.228828 -0.000000
vertex 2.676874 -21.228828 3.000006
endloop
endfacet
facet normal -0.773008 0.634396 0.000000
outer loop
vertex 3.304916 -20.463562 -0.000000
vertex 2.676874 -21.228828 3.000006
vertex 3.304916 -20.463562 3.000006
endloop
endfacet
facet normal -1.000000 0.000001 0.000000
outer loop
vertex -16.484013 -26.433525 -0.000000
vertex -16.484013 -26.433525 3.000006
vertex -16.483999 -12.576700 3.000006
endloop
endfacet
facet normal -1.000000 0.000001 -0.000000
outer loop
vertex -16.484013 -26.433525 -0.000000
vertex -16.483999 -12.576700 3.000006
vertex -16.483999 -12.576744 -0.000000
endloop
endfacet
facet normal -0.881922 0.471396 0.000000
outer loop
vertex 3.771592 -19.590469 -0.000000
vertex 3.304916 -20.463562 -0.000000
vertex 3.304916 -20.463562 3.000006
endloop
endfacet
facet normal -0.881922 0.471396 0.000000
outer loop
vertex 3.771592 -19.590469 -0.000000
vertex 3.304916 -20.463562 3.000006
vertex 3.771592 -19.590469 3.000006
endloop
endfacet
facet normal 0.000000 -1.000000 0.000000
outer loop
vertex -27.605211 33.330116 -0.000000
vertex -17.069183 33.330116 -0.000000
vertex -17.069183 33.330116 3.000006
endloop
endfacet
facet normal 0.000000 -1.000000 0.000000
outer loop
vertex -27.605211 33.330116 -0.000000
vertex -17.069183 33.330116 3.000006
vertex -27.605211 33.330116 3.000006
endloop
endfacet
facet normal -0.956941 0.290283 0.000000
outer loop
vertex 4.058970 -18.643103 -0.000000
vertex 3.771592 -19.590469 -0.000000
vertex 3.771592 -19.590469 3.000006
endloop
endfacet
facet normal -0.956941 0.290283 0.000000
outer loop
vertex 4.058970 -18.643103 -0.000000
vertex 3.771592 -19.590469 3.000006
vertex 4.058970 -18.643103 3.000006
endloop
endfacet
facet normal 0.140743 -0.990046 0.000005
outer loop
vertex -17.069183 33.330116 -0.000000
vertex -13.923491 33.777302 -0.000000
vertex -13.923491 33.777317 3.000006
endloop
endfacet
facet normal 0.140748 -0.990045 0.000000
outer loop
vertex -17.069183 33.330116 -0.000000
vertex -13.923491 33.777317 3.000006
vertex -17.069183 33.330116 3.000006
endloop
endfacet
facet normal -0.995185 0.098016 0.000000
outer loop
vertex 4.156005 -17.657883 -0.000000
vertex 4.058970 -18.643103 -0.000000
vertex 4.058970 -18.643103 3.000006
endloop
endfacet
facet normal -0.995185 0.098017 0.000000
outer loop
vertex 4.156005 -17.657883 -0.000000
vertex 4.058970 -18.643103 3.000006
vertex 4.156005 -17.657883 3.000006
endloop
endfacet
facet normal -1.000000 0.000000 0.000000
outer loop
vertex -13.923491 33.777302 -0.000000
vertex -13.923491 32.183483 -0.000000
vertex -13.923491 32.183483 3.000006
endloop
endfacet
facet normal -1.000000 0.000000 0.000000
outer loop
vertex -13.923491 33.777302 -0.000000
vertex -13.923491 32.183483 3.000006
vertex -13.923491 33.777317 3.000006
endloop
endfacet
facet normal -0.995185 -0.098019 0.000000
outer loop
vertex 4.058969 -16.672663 -0.000000
vertex 4.156005 -17.657883 -0.000000
vertex 4.156005 -17.657883 3.000006
endloop
endfacet
facet normal -0.995185 -0.098018 0.000000
outer loop
vertex 4.058969 -16.672663 -0.000000
vertex 4.156005 -17.657883 3.000006
vertex 4.058969 -16.672663 3.000006
endloop
endfacet
facet normal 0.000000 -1.000000 -0.000000
outer loop
vertex -16.483999 -12.576700 0.000000
vertex -3.200040 -12.576700 0.000000
vertex -3.200041 -12.576700 1.500000
endloop
endfacet
facet normal 0.000000 -1.000000 0.000000
outer loop
vertex -16.483999 -12.576700 0.000000
vertex -3.200041 -12.576700 1.500000
vertex -16.483999 -12.576700 1.500000
endloop
endfacet
facet normal 0.000000 1.000000 0.000000
outer loop
vertex -13.923491 32.183483 -0.000000
vertex -15.326718 32.183483 -0.000000
vertex -15.326718 32.183483 3.000006
endloop
endfacet
facet normal 0.000000 1.000000 0.000000
outer loop
vertex -13.923491 32.183483 -0.000000
vertex -15.326718 32.183483 3.000006
vertex -13.923491 32.183483 3.000006
endloop
endfacet
facet normal -0.956940 -0.290287 0.000000
outer loop
vertex 3.771588 -15.725304 -0.000000
vertex 4.058969 -16.672663 -0.000000
vertex 4.058969 -16.672663 3.000006
endloop
endfacet
facet normal -0.956940 -0.290287 0.000000
outer loop
vertex 3.771588 -15.725304 -0.000000
vertex 4.058969 -16.672663 3.000006
vertex 3.771588 -15.725304 3.000006
endloop
endfacet
facet normal 0.000000 1.000000 0.000000
outer loop
vertex -1.277676 -26.790129 0.000000
vertex -10.410052 -26.790129 0.000000
vertex -10.410052 -26.790129 3.000006
endloop
endfacet
facet normal 0.000000 1.000000 0.000000
outer loop
vertex -1.277676 -26.790129 0.000000
vertex -10.410052 -26.790129 3.000006
vertex -1.277676 -26.790129 3.000006
endloop
endfacet
facet normal 1.000000 0.000000 0.000000
outer loop
vertex -27.605211 24.182600 -0.000000
vertex -27.605211 33.330116 -0.000000
vertex -27.605211 33.330116 3.000006
endloop
endfacet
facet normal 1.000000 0.000000 0.000000
outer loop
vertex -27.605211 24.182600 -0.000000
vertex -27.605211 33.330116 3.000006
vertex -27.605211 24.182600 3.000006
endloop
endfacet
facet normal -0.881921 -0.471397 0.000000
outer loop
vertex 3.304911 -14.852212 -0.000000
vertex 3.771588 -15.725304 -0.000000
vertex 3.771588 -15.725304 3.000006
endloop
endfacet
facet normal -0.881921 -0.471396 0.000000
outer loop
vertex 3.304911 -14.852212 -0.000000
vertex 3.771588 -15.725304 3.000006
vertex 3.304911 -14.852212 3.000006
endloop
endfacet
facet normal 0.999994 -0.003414 0.000000
outer loop
vertex -25.861385 24.176550 0.000000
vertex -25.855257 25.971947 0.000000
vertex -25.855257 25.971947 3.000006
endloop
endfacet
facet normal 0.999994 -0.003411 0.000000
outer loop
vertex -25.861385 24.176550 0.000000
vertex -25.855257 25.971947 3.000006
vertex -25.861385 24.176550 3.000006
endloop
endfacet
facet normal -0.773010 -0.634394 0.000000
outer loop
vertex 2.676867 -14.086941 -0.000000
vertex 3.304911 -14.852212 -0.000000
vertex 3.304911 -14.852212 3.000006
endloop
endfacet
facet normal -0.773009 -0.634395 0.000000
outer loop
vertex 2.676867 -14.086941 -0.000000
vertex 3.304911 -14.852212 3.000006
vertex 2.676867 -14.086941 3.000006
endloop
endfacet
facet normal -1.000000 0.000000 0.000000
outer loop
vertex -1.277676 -26.498199 0.000000
vertex -1.277676 -26.790129 0.000000
vertex -1.277676 -26.790129 3.000006
endloop
endfacet
facet normal -1.000000 0.000000 0.000000
outer loop
vertex -1.277676 -26.498199 0.000000
vertex -1.277676 -26.790129 3.000006
vertex -1.277676 -26.498199 3.000006
endloop
endfacet
facet normal -0.634391 -0.773012 0.000000
outer loop
vertex 1.911595 -13.458902 -0.000000
vertex 2.676867 -14.086941 -0.000000
vertex 2.676867 -14.086941 3.000006
endloop
endfacet
facet normal -0.634391 -0.773012 0.000000
outer loop
vertex 1.911595 -13.458902 -0.000000
vertex 2.676867 -14.086941 3.000006
vertex 1.911595 -13.458902 3.000006
endloop
endfacet
facet normal 0.000000 1.000000 0.000000
outer loop
vertex -15.326718 28.893267 -0.000000
vertex -16.558372 28.893267 -0.000000
vertex -16.558372 28.893267 3.000006
endloop
endfacet
facet normal 0.000000 1.000000 0.000000
outer loop
vertex -15.326718 28.893267 -0.000000
vertex -16.558372 28.893267 3.000006
vertex -15.326718 28.893267 3.000006
endloop
endfacet
facet normal -0.471395 -0.881922 0.000000
outer loop
vertex 1.038502 -12.992227 -0.000000
vertex 1.911595 -13.458902 -0.000000
vertex 1.911595 -13.458902 3.000006
endloop
endfacet
facet normal -0.471395 -0.881922 0.000000
outer loop
vertex 1.038502 -12.992227 -0.000000
vertex 1.911595 -13.458902 3.000006
vertex 1.038502 -12.992227 3.000006
endloop
endfacet
facet normal -1.000000 0.000000 0.000000
outer loop
vertex -15.326718 32.183483 -0.000000
vertex -15.326718 28.893267 -0.000000
vertex -15.326718 28.893267 3.000006
endloop
endfacet
facet normal -1.000000 0.000000 0.000000
outer loop
vertex -15.326718 32.183483 -0.000000
vertex -15.326718 28.893267 3.000006
vertex -15.326718 32.183483 3.000006
endloop
endfacet
facet normal -0.290287 -0.956940 0.000000
outer loop
vertex 0.091141 -12.704845 -0.000000
vertex 1.038502 -12.992227 -0.000000
vertex 1.038502 -12.992227 3.000006
endloop
endfacet
facet normal -0.290287 -0.956940 0.000000
outer loop
vertex 0.091141 -12.704845 -0.000000
vertex 1.038502 -12.992227 3.000006
vertex 0.091141 -12.704845 3.000006
endloop
endfacet
facet normal -0.098011 -0.995185 0.000000
outer loop
vertex -0.894072 -12.607817 -0.000000
vertex 0.091141 -12.704845 -0.000000
vertex 0.091141 -12.704845 3.000006
endloop
endfacet
facet normal -0.098011 -0.995185 0.000000
outer loop
vertex -0.894072 -12.607817 -0.000000
vertex 0.091141 -12.704845 3.000006
vertex -0.894072 -12.607817 3.000006
endloop
endfacet
facet normal 0.000000 1.000000 0.000000
outer loop
vertex 5.566297 -29.590723 -0.000000
vertex 2.027374 -29.590723 -0.000000
vertex 2.027374 -29.590723 3.000006
endloop
endfacet
facet normal 0.000000 1.000000 0.000000
outer loop
vertex 5.566297 -29.590723 -0.000000
vertex 2.027374 -29.590723 3.000006
vertex 5.566297 -29.590723 3.000006
endloop
endfacet
facet normal -1.000000 0.000000 0.000000
outer loop
vertex 5.566297 -28.479376 -0.000000
vertex 5.566297 -29.590723 -0.000000
vertex 5.566297 -29.590723 3.000006
endloop
endfacet
facet normal -1.000000 0.000000 0.000000
outer loop
vertex 5.566297 -28.479376 -0.000000
vertex 5.566297 -29.590723 3.000006
vertex 5.566297 -28.479376 3.000006
endloop
endfacet
facet normal -1.000000 0.000000 0.000000
outer loop
vertex -16.558372 28.893267 -0.000000
vertex -16.558372 24.251427 -0.000000
vertex -16.558372 24.251427 3.000006
endloop
endfacet
facet normal -1.000000 0.000000 0.000000
outer loop
vertex -16.558372 28.893267 -0.000000
vertex -16.558372 24.251427 3.000006
vertex -16.558372 28.893267 3.000006
endloop
endfacet
facet normal 1.000000 0.000000 0.000000
outer loop
vertex 13.285807 -29.451529 -0.000000
vertex 13.285807 -28.479376 -0.000000
vertex 13.285807 -28.479376 3.000006
endloop
endfacet
facet normal 1.000000 0.000000 0.000000
outer loop
vertex 13.285807 -29.451529 -0.000000
vertex 13.285807 -28.479376 3.000006
vertex 13.285807 -29.451529 3.000006
endloop
endfacet
facet normal 0.092102 -0.995750 0.000000
outer loop
vertex -2.144556 -12.723477 -0.000000
vertex -2.015644 -12.711554 -0.000000
vertex -2.015644 -12.711554 3.000006
endloop
endfacet
facet normal 0.092102 -0.995750 0.000000
outer loop
vertex -2.144556 -12.723477 -0.000000
vertex -2.015644 -12.711554 3.000006
vertex -2.144556 -12.723477 3.000006
endloop
endfacet
facet normal 0.000000 1.000000 0.000000
outer loop
vertex 5.566297 -28.479376 -0.000000
vertex 5.566297 -28.479376 3.000006
vertex 13.285807 -28.479376 3.000006
endloop
endfacet
facet normal 0.000000 1.000000 0.000000
outer loop
vertex 5.566297 -28.479376 -0.000000
vertex 13.285807 -28.479376 3.000006
vertex 13.285807 -28.479376 -0.000000
endloop
endfacet
facet normal -1.000000 0.000000 0.000000
outer loop
vertex -15.326820 24.251427 -0.000000
vertex -15.326820 19.835285 -0.000000
vertex -15.326820 19.835285 3.000006
endloop
endfacet
facet normal -1.000000 0.000000 0.000000
outer loop
vertex -15.326820 24.251427 -0.000000
vertex -15.326820 19.835285 3.000006
vertex -15.326820 24.251427 3.000006
endloop
endfacet
facet normal -1.000000 0.000000 0.000000
outer loop
vertex -16.564602 19.835285 -0.000000
vertex -16.564602 19.645411 -0.000000
vertex -16.564602 19.645411 3.000006
endloop
endfacet
facet normal -1.000000 0.000000 0.000000
outer loop
vertex -16.564602 19.835285 -0.000000
vertex -16.564602 19.645411 3.000006
vertex -16.564602 19.835285 3.000006
endloop
endfacet
facet normal 0.000000 1.000000 0.000000
outer loop
vertex -16.380772 19.835285 -0.000000
vertex -16.564602 19.835285 -0.000000
vertex -16.564602 19.835285 3.000006
endloop
endfacet
facet normal 0.000000 1.000000 0.000000
outer loop
vertex -16.380772 19.835285 -0.000000
vertex -16.564602 19.835285 3.000006
vertex -16.380772 19.835285 3.000006
endloop
endfacet
facet normal 0.000000 1.000000 0.000000
outer loop
vertex -15.326820 19.835285 -0.000000
vertex -16.380772 19.835285 -0.000000
vertex -16.380772 19.835285 3.000006
endloop
endfacet
facet normal 0.000000 1.000000 0.000000
outer loop
vertex -15.326820 19.835285 -0.000000
vertex -16.380772 19.835285 3.000006
vertex -15.326820 19.835285 3.000006
endloop
endfacet
facet normal 0.000000 0.000000 -1.000000
outer loop
vertex -31.708302 33.777302 0.000000
vertex 28.555500 33.777302 0.000000
vertex 28.555500 -44.365799 0.000000
endloop
endfacet
facet normal 0.000000 0.000000 -1.000000
outer loop
vertex -31.708302 33.777302 0.000000
vertex 28.555500 -44.365799 0.000000
vertex -31.708302 -44.365799 0.000000
endloop
endfacet
facet normal 0.000000 -1.000000 0.000000
outer loop
vertex -16.540785 1.130968 -0.000000
vertex -15.328799 1.130968 -0.000000
vertex -15.328799 1.130968 3.000006
endloop
endfacet
facet normal 0.000000 -1.000000 0.000000
outer loop
vertex -16.540785 1.130968 -0.000000
vertex -15.328799 1.130968 3.000006
vertex -16.540785 1.130968 3.000006
endloop
endfacet
facet normal 0.000000 -1.000000 0.000000
outer loop
vertex -16.483999 -12.576700 1.500000
vertex -10.410100 -12.576700 1.500000
vertex -10.410100 -12.576700 3.000000
endloop
endfacet
facet normal 0.000000 -1.000000 0.000000
outer loop
vertex -16.483999 -12.576700 1.500000
vertex -10.410100 -12.576700 3.000000
vertex -16.483999 -12.576700 3.000000
endloop
endfacet
facet normal 0.000000 0.000000 1.000000
outer loop
vertex -31.708302 -44.365799 3.000000
vertex 28.555500 -44.365799 3.000000
vertex 28.555500 33.777302 3.000000
endloop
endfacet
facet normal 0.000000 0.000000 1.000000
outer loop
vertex -31.708302 -44.365799 3.000000
vertex 28.555500 33.777302 3.000000
vertex -31.708302 33.777302 3.000000
endloop
endfacet
endsolid Exported from Blender-3.0.0
