solid Exported from Blender-2.92.0
facet normal 0.000000 -1.000000 -0.000000
outer loop
vertex -10.000000 0.000000 -20.000000
vertex 10.000000 0.000000 -20.000000
vertex 10.000000 -0.000000 0.000000
endloop
endfacet
facet normal 0.000000 -1.000000 -0.000000
outer loop
vertex -10.000000 0.000000 -20.000000
vertex 10.000000 -0.000000 0.000000
vertex -10.000000 -0.000000 0.000000
endloop
endfacet
facet normal 0.000000 0.000000 1.000000
outer loop
vertex -10.000000 0.000000 0.000000
vertex 10.000000 0.000000 0.000000
vertex 10.000000 20.000000 0.000000
endloop
endfacet
facet normal 0.000000 0.000000 1.000000
outer loop
vertex -10.000000 0.000000 0.000000
vertex 10.000000 20.000000 0.000000
vertex -10.000000 20.000000 0.000000
endloop
endfacet
facet normal 0.000000 0.000000 1.000000
outer loop
vertex -10.000000 -20.000000 0.000000
vertex 10.000000 -20.000000 0.000000
vertex 10.000000 0.000000 0.000000
endloop
endfacet
facet normal 0.000000 0.000000 1.000000
outer loop
vertex -10.000000 -20.000000 0.000000
vertex 10.000000 0.000000 0.000000
vertex -10.000000 0.000000 0.000000
endloop
endfacet
facet normal 0.000000 0.707107 0.707107
outer loop
vertex -10.000000 -7.071068 7.071068
vertex 10.000000 -7.071068 7.071068
vertex 10.000000 7.071068 -7.071068
endloop
endfacet
facet normal 0.000000 0.707107 0.707107
outer loop
vertex -10.000000 -7.071068 7.071068
vertex 10.000000 7.071068 -7.071068
vertex -10.000000 7.071068 -7.071068
endloop
endfacet
facet normal 0.000000 -1.000000 -0.000000
outer loop
vertex -10.000000 0.000000 0.000000
vertex 10.000000 0.000000 0.000000
vertex 10.000000 -0.000000 20.000000
endloop
endfacet
facet normal 0.000000 -1.000000 -0.000000
outer loop
vertex -10.000000 0.000000 0.000000
vertex 10.000000 -0.000000 20.000000
vertex -10.000000 -0.000000 20.000000
endloop
endfacet
facet normal 0.000000 -0.707107 0.707107
outer loop
vertex -10.000000 -7.071068 -7.071068
vertex 10.000000 -7.071068 -7.071068
vertex 10.000000 7.071068 7.071068
endloop
endfacet
facet normal 0.000000 -0.707107 0.707107
outer loop
vertex -10.000000 -7.071068 -7.071068
vertex 10.000000 7.071068 7.071068
vertex -10.000000 7.071068 7.071068
endloop
endfacet
endsolid Exported from Blender-2.92.0
