solid Exported from Blender-2.92.0
facet normal 0.000000 0.000000 1.000000
outer loop
vertex -1.000000 -1.000000 0.000000
vertex 1.000000 -1.000000 0.000000
vertex 1.000000 1.000000 0.000000
endloop
endfacet
facet normal 0.000000 0.000000 1.000000
outer loop
vertex -1.000000 -1.000000 0.000000
vertex 1.000000 1.000000 0.000000
vertex -1.000000 1.000000 0.000000
endloop
endfacet
facet normal -0.707107 0.000000 0.707107
outer loop
vertex 0.292893 -1.000000 -0.707107
vertex 1.707107 -1.000000 0.707107
vertex 1.707107 1.000000 0.707107
endloop
endfacet
facet normal -0.707107 0.000000 0.707107
outer loop
vertex 0.292893 -1.000000 -0.707107
vertex 1.707107 1.000000 0.707107
vertex 0.292893 1.000000 -0.707107
endloop
endfacet
facet normal 0.000000 0.000000 1.000000
outer loop
vertex -1.000000 3.000000 0.000000
vertex 1.000000 3.000000 0.000000
vertex 1.000000 5.000000 0.000000
endloop
endfacet
facet normal 0.000000 0.000000 1.000000
outer loop
vertex -1.000000 3.000000 0.000000
vertex 1.000000 5.000000 0.000000
vertex -1.000000 5.000000 0.000000
endloop
endfacet
facet normal -0.707107 0.000000 0.707107
outer loop
vertex 0.292893 3.000000 -0.707107
vertex 1.707107 3.000000 0.707107
vertex 1.707107 5.000000 0.707107
endloop
endfacet
facet normal -0.707107 0.000000 0.707107
outer loop
vertex 0.292893 3.000000 -0.707107
vertex 1.707107 5.000000 0.707107
vertex 0.292893 5.000000 -0.707107
endloop
endfacet
endsolid Exported from Blender-2.92.0
