solid Exported from Blender-2.81 (sub 16)
facet normal -1.000000 0.000000 0.000000
outer loop
vertex 0.000000 0.000000 0.000000
vertex 0.000000 0.000000 3.000000
vertex 0.000000 9.000000 3.000000
endloop
endfacet
facet normal -1.000000 0.000000 0.000000
outer loop
vertex 0.000000 0.000000 0.000000
vertex 0.000000 9.000000 3.000000
vertex 0.000000 9.000000 0.000000
endloop
endfacet
facet normal 0.000000 1.000000 0.000000
outer loop
vertex 0.000000 9.000000 0.000000
vertex 0.000000 9.000000 3.000000
vertex 12.000000 9.000000 3.000000
endloop
endfacet
facet normal 0.000000 1.000000 0.000000
outer loop
vertex 0.000000 9.000000 0.000000
vertex 12.000000 9.000000 3.000000
vertex 12.000000 9.000000 0.000000
endloop
endfacet
facet normal 1.000000 0.000000 0.000000
outer loop
vertex 12.000000 9.000000 0.000000
vertex 12.000000 9.000000 3.000000
vertex 12.000000 0.000000 3.000000
endloop
endfacet
facet normal 1.000000 0.000000 0.000000
outer loop
vertex 12.000000 9.000000 0.000000
vertex 12.000000 0.000000 3.000000
vertex 12.000000 0.000000 0.000000
endloop
endfacet
facet normal 0.000000 -1.000000 0.000000
outer loop
vertex 12.000000 0.000000 0.000000
vertex 12.000000 0.000000 3.000000
vertex 0.000000 0.000000 3.000000
endloop
endfacet
facet normal 0.000000 -1.000000 0.000000
outer loop
vertex 12.000000 0.000000 0.000000
vertex 0.000000 0.000000 3.000000
vertex 0.000000 0.000000 0.000000
endloop
endfacet
facet normal 0.000000 0.000000 -1.000000
outer loop
vertex 0.000000 9.000000 0.000000
vertex 12.000000 9.000000 0.000000
vertex 12.000000 0.000000 0.000000
endloop
endfacet
facet normal 0.000000 0.000000 -1.000000
outer loop
vertex 0.000000 9.000000 0.000000
vertex 12.000000 0.000000 0.000000
vertex 0.000000 0.000000 0.000000
endloop
endfacet
facet normal 0.000000 0.000000 1.000000
outer loop
vertex 12.000000 9.000000 3.000000
vertex 0.000000 9.000000 3.000000
vertex 0.000000 0.000000 3.000000
endloop
endfacet
facet normal 0.000000 0.000000 1.000000
outer loop
vertex 12.000000 9.000000 3.000000
vertex 0.000000 0.000000 3.000000
vertex 12.000000 0.000000 3.000000
endloop
endfacet
facet normal 1.000000 0.000000 0.000000
outer loop
vertex 9.000000 0.000000 3.000000
vertex 9.000000 0.000000 0.000000
vertex 9.000000 3.000000 0.000000
endloop
endfacet
facet normal 1.000000 0.000000 0.000000
outer loop
vertex 9.000000 0.000000 3.000000
vertex 9.000000 3.000000 0.000000
vertex 9.000000 3.000000 3.000000
endloop
endfacet
facet normal 0.000000 -1.000000 0.000000
outer loop
vertex 7.000000 3.000000 0.000000
vertex 11.000000 3.000000 0.000000
vertex 11.000000 3.000000 3.000000
endloop
endfacet
facet normal 0.000000 -1.000000 0.000000
outer loop
vertex 7.000000 3.000000 0.000000
vertex 11.000000 3.000000 3.000000
vertex 7.000000 3.000000 3.000000
endloop
endfacet
facet normal 0.000000 -1.000000 0.000000
outer loop
vertex 1.000000 3.000000 0.000000
vertex 5.000000 3.000000 0.000000
vertex 5.000000 3.000000 3.000000
endloop
endfacet
facet normal 0.000000 -1.000000 0.000000
outer loop
vertex 1.000000 3.000000 0.000000
vertex 5.000000 3.000000 3.000000
vertex 1.000000 3.000000 3.000000
endloop
endfacet
facet normal 1.000000 0.000000 0.000000
outer loop
vertex 2.000000 0.000000 3.000000
vertex 2.000000 0.000000 0.000000
vertex 2.000000 3.000000 0.000000
endloop
endfacet
facet normal 1.000000 0.000000 0.000000
outer loop
vertex 2.000000 0.000000 3.000000
vertex 2.000000 3.000000 0.000000
vertex 2.000000 3.000000 3.000000
endloop
endfacet
facet normal 0.000000 -1.000000 0.000000
outer loop
vertex 1.000000 6.000000 0.000000
vertex 3.000000 6.000000 0.000000
vertex 3.000000 6.000000 3.000000
endloop
endfacet
facet normal 0.000000 -1.000000 0.000000
outer loop
vertex 1.000000 6.000000 0.000000
vertex 3.000000 6.000000 3.000000
vertex 1.000000 6.000000 3.000000
endloop
endfacet
facet normal 1.000000 0.000000 0.000000
outer loop
vertex 3.000000 6.000000 3.000000
vertex 3.000000 6.000000 0.000000
vertex 3.000000 9.000000 -0.000000
endloop
endfacet
facet normal 1.000000 0.000000 0.000000
outer loop
vertex 3.000000 6.000000 3.000000
vertex 3.000000 9.000000 -0.000000
vertex 3.000000 9.000000 3.000000
endloop
endfacet
facet normal 0.000000 -1.000000 0.000000
outer loop
vertex 6.000000 6.000000 0.000000
vertex 11.000000 6.000000 0.000000
vertex 11.000000 6.000000 3.000000
endloop
endfacet
facet normal 0.000000 -1.000000 0.000000
outer loop
vertex 6.000000 6.000000 0.000000
vertex 11.000000 6.000000 3.000000
vertex 6.000000 6.000000 3.000000
endloop
endfacet
facet normal 1.000000 0.000000 0.000000
outer loop
vertex 9.000000 6.000000 3.000000
vertex 9.000000 6.000000 0.000000
vertex 9.000000 9.000000 -0.000000
endloop
endfacet
facet normal 1.000000 0.000000 0.000000
outer loop
vertex 9.000000 6.000000 3.000000
vertex 9.000000 9.000000 -0.000000
vertex 9.000000 9.000000 3.000000
endloop
endfacet
endsolid Exported from Blender-2.81 (sub 16)
